<svg xmlns="http://www.w3.org/2000/svg" viewBox="0 0 1100 250" role="img" aria-label="견적 검수 5단계를 상징하는 도구 콜라주">
<defs>
  <filter id="rough"><feTurbulence type="fractalNoise" baseFrequency=".028" numOctaves="2" seed="21" result="n"/><feDisplacementMap in="SourceGraphic" in2="n" scale="1.7"/></filter>
  <pattern id="paper" width="8" height="8" patternUnits="userSpaceOnUse"><circle cx="1" cy="1" r=".8" fill="#0d0d0c" opacity=".42"/></pattern>
</defs>
<g filter="url(#rough)">
  <path d="M117 165c75 15 121 15 202-3 91-20 143-18 234 4 88 22 154 18 225-2 65-18 112-14 199 6" fill="none" stroke="#0d0d0c" stroke-width="6" stroke-linecap="round" stroke-dasharray="4 10"/>
  <g transform="translate(40 42)">
    <rect x="0" y="0" width="146" height="122" fill="#f7f1e8" stroke="#0d0d0c" stroke-width="4"/>
    <circle cx="74" cy="61" r="31" fill="#ff5a2a" stroke="#0d0d0c" stroke-width="4"/>
    <circle cx="74" cy="61" r="13" fill="#f7f1e8" stroke="#0d0d0c" stroke-width="3"/>
    <path d="M99 86l38 31" stroke="#0d0d0c" stroke-width="8"/>
  </g>
  <g transform="translate(255 25)">
    <rect width="144" height="145" fill="url(#paper)" stroke="#0d0d0c" stroke-width="4"/>
    <path d="M25 28h94M25 52h75M25 76h94M25 100h64" stroke="#0d0d0c" stroke-width="4"/>
    <rect x="84" y="92" width="34" height="21" fill="#ff5a2a" stroke="#0d0d0c" stroke-width="3"/>
  </g>
  <g transform="translate(470 38)">
    <path d="M19 114L102 7l34 27-83 107z" fill="#f7f1e8" stroke="#0d0d0c" stroke-width="4"/>
    <path d="M43 105l75-97" stroke="#ff5a2a" stroke-width="7"/>
    <path d="M55 94l10 8M67 79l10 8M79 64l10 8M91 49l10 8" stroke="#0d0d0c" stroke-width="3"/>
  </g>
  <g transform="translate(681 30)">
    <rect width="142" height="136" fill="#0d0d0c"/>
    <rect x="13" y="13" width="116" height="27" fill="#f7f1e8"/>
    <g fill="#f7f1e8"><rect x="14" y="56" width="28" height="20"/><rect x="56" y="56" width="28" height="20"/><rect x="98" y="56" width="28" height="20"/><rect x="14" y="90" width="28" height="20"/><rect x="56" y="90" width="28" height="20"/><rect x="98" y="90" width="28" height="20"/></g>
    <rect x="98" y="90" width="28" height="20" fill="#ff5a2a"/>
  </g>
  <g transform="translate(897 31)">
    <rect width="150" height="140" fill="#f7f1e8" stroke="#0d0d0c" stroke-width="4"/>
    <rect x="18" y="22" width="18" height="18" fill="#ff5a2a" stroke="#0d0d0c" stroke-width="3"/>
    <path d="M22 30l8 7 15-19" fill="none" stroke="#0d0d0c" stroke-width="4"/>
    <path d="M51 30h78M18 65h18v18H18zM51 73h78M18 103h18v18H18zM51 111h78" fill="none" stroke="#0d0d0c" stroke-width="4"/>
  </g>
</g>
</svg>