<svg xmlns="http://www.w3.org/2000/svg" viewBox="0 0 420 330" role="img" aria-label="줄자와 손을 추상화한 장식 그래픽">
<defs>
  <filter id="rough"><feTurbulence type="fractalNoise" baseFrequency=".035" numOctaves="2" seed="7" result="n"/><feDisplacementMap in="SourceGraphic" in2="n" scale="2.1"/></filter>
  <pattern id="dot" width="7" height="7" patternUnits="userSpaceOnUse"><circle cx="1.5" cy="1.5" r="1.05" fill="#0d0d0c"/></pattern>
</defs>
<g filter="url(#rough)">
  <path d="M18 263c50-34 83-46 111-52 20-4 37-2 48 5 18 12 27 31 38 56l-56 42H51z" fill="url(#dot)"/>
  <path d="M119 210c19-26 41-55 57-74 12-15 28-19 39-10 11 9 9 22-1 36l-20 29 44-55c10-13 26-15 36-7 11 9 9 22-1 36l-31 40 41-45c10-11 26-12 35-3 10 10 7 22-4 34l-52 56c-12 13-23 22-35 31l-44 35-79-45z" fill="#0d0d0c"/>
  <path d="M164 153l-29 44M207 138l-35 48M254 145l-33 44" stroke="#f7f1e8" stroke-width="5" stroke-linecap="round"/>
  <g transform="translate(245 48)">
    <circle cx="68" cy="68" r="63" fill="#ff5a2a" stroke="#0d0d0c" stroke-width="5"/>
    <circle cx="68" cy="68" r="28" fill="#f7f1e8" stroke="#0d0d0c" stroke-width="4"/>
    <path d="M98 99l75 67" fill="none" stroke="#0d0d0c" stroke-width="12" stroke-linecap="square"/>
    <path d="M108 106l66 59" fill="none" stroke="#f7f1e8" stroke-width="3" stroke-dasharray="6 8"/>
  </g>
  <path d="M308 77h66M321 57h53M329 97h45" stroke="#0d0d0c" stroke-width="2" opacity=".75"/>
</g>
</svg>